<?xml version="1.0" encoding="utf-8"?>
<svg viewBox="113.502 148.492 221.649 200" xmlns="http://www.w3.org/2000/svg" xmlns:bx="https://boxy-svg.com">
  <path d="M 142.151 148.492 H 328.151 A 7 7 0 0 1 335.151 155.492 V 341.492 A 7 7 0 0 1 328.151 348.492 H 142.151 A 7 7 0 0 1 135.151 341.492 V 155.492 A 7 7 0 0 1 142.151 148.492 Z M 143.385 160.822 V 336.162 A 2.883 2.883 0 0 0 146.268 339.045 H 324.034 A 2.883 2.883 0 0 0 326.917 336.162 V 160.822 A 2.883 2.883 0 0 0 324.034 157.939 H 146.268 A 2.883 2.883 0 0 0 143.385 160.822 Z" style="stroke: rgb(0, 0, 0);" bx:shape="frame 135.151 148.492 200 200 8.234 9.447 7 7 7 7 1@74b4ae78"/>
  <g transform="matrix(1, 0, 0, 1, 9.571136, 1.367305)">
    <rect x="103.931" width="70.808" height="41.142" rx="3" ry="3" style="stroke: rgb(0, 0, 0);" y="175.796"/>
    <rect x="103.931" width="70.808" height="41.142" rx="3" ry="3" style="stroke: rgb(0, 0, 0);" y="227.918"/>
  </g>
</svg>